<svg class="main-svg" xmlns="http://www.w3.org/2000/svg" xmlns:xlink="http://www.w3.org/1999/xlink" width="800" height="500" style="" viewBox="0 0 800 500"><rect x="0" y="0" width="800" height="500" style="fill: rgb(255, 255, 255); fill-opacity: 1;"/><defs id="defs-32c91d"><g class="clips"><clipPath id="clip32c91dxyplot" class="plotclip"><rect width="585" height="320"/></clipPath><clipPath class="axesclip" id="clip32c91dx"><rect x="80" y="0" width="585" height="500"/></clipPath><clipPath class="axesclip" id="clip32c91dy"><rect x="0" y="100" width="800" height="320"/></clipPath><clipPath class="axesclip" id="clip32c91dxy"><rect x="80" y="100" width="585" height="320"/></clipPath></g><g class="gradients"/><g class="patterns"/></defs><g class="bglayer"/><g class="layer-below"><g class="imagelayer"/><g class="shapelayer"/></g><g class="cartesianlayer"><g class="subplot xy"><g class="layer-subplot"><g class="shapelayer"/><g class="imagelayer"/></g><g class="minor-gridlayer"><g class="x"/><g class="y"/></g><g class="gridlayer"><g class="x"><path class="xgrid crisp" transform="translate(111.34,0)" d="M0,100v320" style="stroke: rgb(235, 240, 248); stroke-opacity: 1; stroke-width: 1px;"/><path class="xgrid crisp" transform="translate(182.14,0)" d="M0,100v320" style="stroke: rgb(235, 240, 248); stroke-opacity: 1; stroke-width: 1px;"/><path class="xgrid crisp" transform="translate(254.11,0)" d="M0,100v320" style="stroke: rgb(235, 240, 248); stroke-opacity: 1; stroke-width: 1px;"/><path class="xgrid crisp" transform="translate(324.90999999999997,0)" d="M0,100v320" style="stroke: rgb(235, 240, 248); stroke-opacity: 1; stroke-width: 1px;"/><path class="xgrid crisp" transform="translate(395.71,0)" d="M0,100v320" style="stroke: rgb(235, 240, 248); stroke-opacity: 1; stroke-width: 1px;"/><path class="xgrid crisp" transform="translate(465.36,0)" d="M0,100v320" style="stroke: rgb(235, 240, 248); stroke-opacity: 1; stroke-width: 1px;"/><path class="xgrid crisp" transform="translate(536.1600000000001,0)" d="M0,100v320" style="stroke: rgb(235, 240, 248); stroke-opacity: 1; stroke-width: 1px;"/><path class="xgrid crisp" transform="translate(606.96,0)" d="M0,100v320" style="stroke: rgb(235, 240, 248); stroke-opacity: 1; stroke-width: 1px;"/></g><g class="y"><path class="ygrid crisp" transform="translate(0,348.09000000000003)" d="M80,0h585" style="stroke: rgb(235, 240, 248); stroke-opacity: 1; stroke-width: 1px;"/><path class="ygrid crisp" transform="translate(0,291.62)" d="M80,0h585" style="stroke: rgb(235, 240, 248); stroke-opacity: 1; stroke-width: 1px;"/><path class="ygrid crisp" transform="translate(0,235.15)" d="M80,0h585" style="stroke: rgb(235, 240, 248); stroke-opacity: 1; stroke-width: 1px;"/><path class="ygrid crisp" transform="translate(0,178.68)" d="M80,0h585" style="stroke: rgb(235, 240, 248); stroke-opacity: 1; stroke-width: 1px;"/><path class="ygrid crisp" transform="translate(0,122.21000000000001)" d="M80,0h585" style="stroke: rgb(235, 240, 248); stroke-opacity: 1; stroke-width: 1px;"/></g></g><g class="zerolinelayer"><path class="yzl zl crisp" transform="translate(0,404.56)" d="M80,0h585" style="stroke: rgb(235, 240, 248); stroke-opacity: 1; stroke-width: 2px;"/></g><path class="xlines-below"/><path class="ylines-below"/><g class="overlines-below"/><g class="xaxislayer-below"/><g class="yaxislayer-below"/><g class="overaxes-below"/><g class="plot" transform="translate(80,100)" clip-path="url(#clip32c91dxyplot)"><g class="scatterlayer mlayer"><g class="trace scatter traced3e122" style="stroke-miterlimit: 2; opacity: 1;"><g class="fills"/><g class="errorbars"/><g class="lines"><path class="js-line" d="M0,304L65,303.44L67.32,302.31L73.13,294.96L75.45,294.4L80.09,292.71L81.25,292.14L90.54,288.75L91.7,287.06L96.34,285.36L98.66,284.8L103.3,283.11L104.46,282.54L119.55,278.59L120.71,276.89L128.84,275.2L131.16,272.94L133.48,270.12L138.13,269.55L139.29,268.99L147.41,268.42L152.05,266.16L155.54,265.6L157.86,264.47L163.66,263.91L178.75,259.95L182.23,258.82L188.04,257.13L189.2,255.44L190.36,254.87L195,254.31L200.8,248.66L203.13,245.27L205.45,243.58L208.93,243.01L213.57,240.19L214.73,238.49L226.34,237.36L227.5,236.8L237.95,235.11L239.11,232.85L243.75,230.59L244.91,230.02L246.07,228.33L249.55,227.76L253.04,223.81L254.2,223.25L257.68,222.12L260,220.42L263.48,219.29L270.45,217.6L275.09,215.34L276.25,213.65L278.57,211.39L279.73,210.26L284.38,207.44L287.86,206.87L290.18,206.31L291.34,205.18L295.98,204.05L302.95,203.48L306.43,202.35L309.91,201.79L311.07,201.22L320.36,200.66L321.52,198.96L330.8,197.84L342.41,192.19L343.57,190.49L344.73,189.93L349.38,189.36L352.86,187.11L355.18,186.54L369.11,182.59L372.59,181.46L379.55,178.07L381.88,175.81L390,173.55L400.45,172.42L427.14,169.04L429.46,167.91L430.63,166.78L434.11,166.21L442.23,164.52L446.88,163.39L452.68,160L460.8,159.44L463.13,158.31L473.57,157.74L478.21,156.05L479.38,155.48L482.86,153.22L486.34,152.66L488.66,150.96L489.82,150.4L493.3,149.27L499.11,148.71L501.43,148.14L504.91,146.45L511.88,144.75L513.04,143.62L521.16,140.24L525.8,139.67L536.25,134.59L539.73,134.02L542.05,133.46L543.21,130.64L546.7,128.94L551.34,128.38L553.66,126.68L557.14,126.12L559.46,124.99L567.59,123.86L578.04,122.73L579.2,121.6" style="vector-effect: non-scaling-stroke; fill: none; stroke: rgb(188, 188, 188); stroke-opacity: 1; stroke-width: 1px; opacity: 1;"/></g><g class="points"/><g class="text"/></g><g class="trace scatter trace871c08" style="stroke-miterlimit: 2; opacity: 1;"><g class="fills"/><g class="errorbars"/><g class="lines"><path class="js-line" d="M3.48,304L4.64,303.44L25.54,302.87L26.7,302.31L34.82,301.74L39.46,301.18L67.32,300.05L70.8,298.35L71.96,296.09L73.13,294.4L75.45,293.84L80.09,292.71L81.25,291.58L82.41,290.45L84.73,289.88L100.98,281.41L106.79,280.28L107.95,279.72L111.43,279.15L124.2,277.46L125.36,276.33L126.52,275.2L130,274.64L135.8,272.38L138.13,271.81L139.29,270.68L142.77,270.12L146.25,268.99L147.41,267.29L152.05,266.16L153.21,265.04L155.54,263.34L156.7,262.78L157.86,262.21L161.34,261.65L163.66,260.52L171.79,259.39L172.95,258.82L176.43,258.26L177.59,257.69L182.23,256.56L185.71,254.87L189.2,254.31L190.36,253.74L193.84,253.18L198.48,252.61L203.13,248.66L212.41,244.14L218.21,242.45L225.18,239.06L227.5,236.8L229.82,235.11L232.14,234.54L234.46,233.41L235.63,231.72L237.95,230.02L242.59,228.89L243.75,228.33L244.91,223.81L248.39,221.55L249.55,220.42L254.2,217.6L255.36,216.47L261.16,214.78L264.64,214.21L269.29,213.65L270.45,212.52L271.61,210.82L275.09,209.13L276.25,208.56L277.41,206.87L280.89,204.61L283.21,183.15L284.38,182.59L285.54,179.76L286.7,178.64L289.02,178.07L292.5,176.38L293.66,174.68L295.98,172.99L298.3,172.42L299.46,170.16L300.63,169.6L308.75,167.91L309.91,166.78L311.07,166.21L314.55,165.65L320.36,162.82L321.52,161.13L323.84,160L326.16,157.74L335.45,153.22L336.61,152.09L342.41,148.71L345.89,148.14L348.21,146.45L349.38,145.32L350.54,141.93L351.7,141.36L354.02,139.67L356.34,137.98L358.66,136.85L359.82,135.15L360.98,133.46L364.46,132.89L366.79,130.64L367.95,127.25L369.11,126.68L372.59,123.86L374.91,119.34L376.07,118.78L379.55,115.39L380.71,114.82L381.88,113.69L384.2,110.31L386.52,108.61L387.68,108.05L392.32,106.35L393.48,104.66L399.29,101.84L400.45,100.14L405.09,97.32L406.25,94.49L410.89,92.8L412.05,92.24L414.38,91.11L415.54,89.41L420.18,84.33L422.5,83.76L431.79,79.25L434.11,78.68L438.75,76.99L442.23,75.86L448.04,69.65L449.2,66.26L451.52,62.87L452.68,61.18L458.48,57.79L461.96,57.22L464.29,56.66L465.45,54.4L471.25,53.27L472.41,52.71L486.34,49.32L487.5,47.62L496.79,44.24L499.11,42.54L502.59,40.85L503.75,39.15L504.91,38.02L508.39,37.46L510.71,36.89L511.88,35.76L514.2,34.07L520,33.51L536.25,28.99L537.41,27.86L549.02,22.78L552.5,21.65L561.79,19.95L569.91,19.39L572.23,18.82L573.39,17.69L578.04,16" style="vector-effect: non-scaling-stroke; fill: none; stroke: rgb(188, 188, 188); stroke-opacity: 1; stroke-width: 1px; opacity: 1;"/></g><g class="points"/><g class="text"/></g><g class="trace scatter trace9f4df2" style="stroke-miterlimit: 2; opacity: 1;"><g class="fills"/><g class="errorbars"/><g class="lines"><path class="js-line" d="M3.48,304L4.64,303.44L25.54,302.87L26.7,302.31L34.82,301.74L39.46,301.18L67.32,300.61L68.48,300.05L73.13,299.48L92.86,297.79L99.82,296.66L104.46,296.09L160.18,295.53L193.84,293.27L197.32,292.14L198.48,291.58L201.96,291.01L203.13,290.45L206.61,289.88L220.54,288.19L221.7,287.62L235.63,285.93L237.95,285.36L243.75,284.8L244.91,282.54L247.23,275.2L253.04,274.64L284.38,272.38L285.54,271.81L309.91,267.86L323.84,266.73L340.09,265.6L341.25,265.04L343.57,264.47L349.38,263.91L350.54,263.34L366.79,262.78L387.68,261.65L392.32,261.08L446.88,259.39L448.04,258.82L481.7,257.13L486.34,256L490.98,254.31L504.91,253.74L524.64,252.05L529.29,250.35L536.25,248.09L537.41,247.53L555.98,245.27L558.3,244.71L560.63,244.14L566.43,243.58L575.71,243.01" style="vector-effect: non-scaling-stroke; fill: none; stroke: rgb(188, 188, 188); stroke-opacity: 1; stroke-width: 1px; opacity: 1;"/></g><g class="points"/><g class="text"/></g><g class="trace scatter trace47db8d" style="stroke-miterlimit: 2; opacity: 1;"><g class="fills"/><g class="errorbars"/><g class="lines"><path class="js-line" d="M3.48,304L4.64,303.44L25.54,302.87L26.7,302.31L34.82,301.74L39.46,301.18L80.09,300.61L99.82,297.22L136.96,296.66L138.13,296.09L161.34,295.53L182.23,294.4L188.04,293.84L190.36,292.71L193.84,292.14L237.95,291.01L241.43,288.19L242.59,284.24L243.75,277.46L247.23,156.61L249.55,155.48L250.71,154.35L253.04,153.79L270.45,153.22L271.61,144.19L276.25,143.06L283.21,140.24L292.5,139.11L293.66,137.98L299.46,137.41L323.84,136.85L342.41,134.59L347.05,134.02L351.7,133.46L363.3,132.89L401.61,131.76L403.93,131.2L409.73,130.07L413.21,126.12L449.2,123.86L486.34,123.29L487.5,122.73L526.96,122.16L529.29,121.04" style="vector-effect: non-scaling-stroke; fill: none; stroke: rgb(188, 188, 188); stroke-opacity: 1; stroke-width: 1px; opacity: 1;"/></g><g class="points"/><g class="text"/></g><g class="trace scatter tracebe6c53" style="stroke-miterlimit: 2; opacity: 1;"><g class="fills"/><g class="errorbars"/><g class="lines"><path class="js-line" d="M11.61,304L17.41,303.44L48.75,302.87L71.96,295.53L73.13,294.96L78.93,294.4L80.09,293.27L88.21,291.01L89.38,288.19L90.54,285.36L92.86,284.8L99.82,282.54L112.59,281.98L120.71,278.59L125.36,277.46L132.32,273.51L143.93,271.25L146.25,269.55L149.73,268.99L152.05,268.42L153.21,267.29L170.63,263.91L171.79,262.78L181.07,258.26L186.88,257.13L193.84,255.44L195,254.31L198.48,245.84L199.64,245.27L201.96,244.71L203.13,233.41L211.25,228.33L212.41,226.07L214.73,224.38L220.54,223.81L226.34,222.68L227.5,221.55L229.82,219.86L235.63,218.73L243.75,217.6L246.07,215.91L254.2,211.95L255.36,210.26L258.84,209.13L260,207.44L270.45,205.18L271.61,204.61L276.25,202.92L277.41,201.22L286.7,196.71L292.5,196.14L293.66,195.01L295.98,194.45L297.14,192.19L299.46,191.62L301.79,190.49L305.27,189.93L315.71,187.11L318.04,185.98L319.2,185.41L323.84,184.28L331.96,182.02L333.13,180.33L334.29,179.76L337.77,179.2L358.66,175.81L360.98,174.68L362.14,174.12L365.63,173.55L367.95,172.42L372.59,171.86L373.75,171.29L374.91,166.78L388.84,163.95L391.16,162.26L393.48,159.44L400.45,158.87L403.93,157.74L406.25,156.05L408.57,153.79L410.89,153.22L423.66,149.84L425.98,145.88L429.46,143.62L438.75,141.93L439.91,137.98L442.23,136.28L445.71,130.64L448.04,130.07L450.36,124.99L451.52,124.42L457.32,122.73L459.64,121.04L461.96,120.47L463.13,118.78L464.29,118.21L465.45,116.52L473.57,114.82L477.05,114.26L484.02,111.44L486.34,110.87L497.95,107.48L499.11,104.09L503.75,103.53L504.91,102.4L506.07,101.84L510.71,101.27L511.88,99.01L517.68,98.45L528.13,97.32L529.29,96.19L536.25,94.49L537.41,93.36L546.7,91.11L553.66,90.54L566.43,88.28" style="vector-effect: non-scaling-stroke; fill: none; stroke: rgb(188, 188, 188); stroke-opacity: 1; stroke-width: 1px; opacity: 1;"/></g><g class="points"/><g class="text"/></g><g class="trace scatter tracece3652" style="stroke-miterlimit: 2; opacity: 1;"><g class="fills"/><g class="errorbars"/><g class="lines"><path class="js-line" d="M65,304L193.84,302.31L201.96,301.74L203.13,301.18L293.66,299.48L295.98,298.35L301.79,297.79L364.46,297.22L384.2,296.09L415.54,294.4L424.82,293.84L456.16,293.27L560.63,292.71" style="vector-effect: non-scaling-stroke; fill: none; stroke: rgb(188, 188, 188); stroke-opacity: 1; stroke-width: 1px; opacity: 1;"/></g><g class="points"/><g class="text"/></g><g class="trace scatter trace16623c" style="stroke-miterlimit: 2; opacity: 1;"><g class="fills"/><g class="errorbars"/><g class="lines"><path class="js-line" d="M65,303.44L85.89,302.87L89.38,301.74L90.54,300.61L106.79,300.05L131.16,297.79L161.34,297.22L189.2,296.09L197.32,294.4L201.96,292.71L203.13,289.88L205.45,287.06L208.93,285.93L211.25,283.67L212.41,282.54L229.82,281.98L236.79,280.85L239.11,279.72L242.59,279.15L243.75,278.59L250.71,278.02L254.2,276.33L263.48,275.76L278.57,271.81L279.73,270.68L293.66,267.86L294.82,267.29L326.16,264.47L328.48,263.91L359.82,261.65L365.63,259.95L374.91,258.26L392.32,257.69L403.93,256.56L409.73,256L410.89,255.44L434.11,254.87L456.16,252.61L464.29,251.48L465.45,250.35L473.57,249.79L493.3,248.09L499.11,246.96L504.91,244.14L514.2,243.58L515.36,243.01L523.48,242.45L536.25,241.32L567.59,240.75" style="vector-effect: non-scaling-stroke; fill: none; stroke: rgb(188, 188, 188); stroke-opacity: 1; stroke-width: 1px; opacity: 1;"/></g><g class="points"/><g class="text"/></g><g class="trace scatter tracea46eb6" style="stroke-miterlimit: 2; opacity: 1;"><g class="fills"/><g class="errorbars"/><g class="lines"><path class="js-line" d="M65,304L69.64,302.87L71.96,301.18L73.13,299.48L80.09,298.92L87.05,295.53L90.54,294.96L94.02,293.84L95.18,292.71L98.66,291.01L106.79,289.88L113.75,289.32L114.91,288.19L128.84,284.8L131.16,283.11L132.32,281.98L135.8,281.41L146.25,280.28L148.57,279.72L149.73,279.15L157.86,278.02L163.66,276.89L164.82,275.76L165.98,275.2L171.79,274.64L172.95,274.07L176.43,273.51L177.59,272.94L181.07,272.38L190.36,270.68L192.68,270.12L196.16,266.73L197.32,263.91L201.96,262.21L203.13,251.48L206.61,249.22L210.09,247.53L211.25,245.84L217.05,245.27L226.34,244.71L227.5,243.58L229.82,243.01L230.98,240.19L233.3,239.62L234.46,238.49L237.95,234.54L239.11,233.98L242.59,231.15L243.75,229.46L247.23,223.81L249.55,222.68L251.88,219.86L255.36,219.29L258.84,215.91L261.16,215.34L263.48,214.21L268.13,213.65L270.45,211.95L271.61,210.26L276.25,207.44L277.41,205.74L278.57,203.48L279.73,202.92L282.05,202.35L283.21,201.22L292.5,200.09L299.46,198.4L301.79,197.84L311.07,197.27L312.23,196.71L322.68,196.14L325,195.58L331.96,195.01L341.25,192.19L348.21,191.62L351.7,189.36L358.66,188.8L362.14,186.54L367.95,185.41L373.75,184.28L374.91,183.15L381.88,180.33L386.52,179.76L388.84,179.2L390,178.07L414.38,175.81L415.54,175.25L430.63,173.55L431.79,171.86L449.2,170.16L450.36,169.6L451.52,169.04L458.48,168.47L461.96,167.34L463.13,165.65L467.77,164.52L481.7,163.95L487.5,162.82L488.66,161.13L510.71,158.87L513.04,158.31L517.68,156.05L522.32,154.92L523.48,154.35L526.96,153.79L530.45,150.4L531.61,149.84L539.73,145.88L542.05,145.32L543.21,144.75L544.38,143.06L547.86,140.8L551.34,138.54L558.3,136.28L559.46,135.72L566.43,134.59L567.59,133.46L576.88,131.2L579.2,130.64L580.36,130.07L583.84,129.51" style="vector-effect: non-scaling-stroke; fill: none; stroke: rgb(188, 188, 188); stroke-opacity: 1; stroke-width: 1px; opacity: 1;"/></g><g class="points"/><g class="text"/></g><g class="trace scatter tracefcf51a" style="stroke-miterlimit: 2; opacity: 1;"><g class="fills"/><g class="errorbars"/><g class="lines"><path class="js-line" d="M65,304L98.66,301.74L119.55,301.18L121.88,299.48L132.32,298.92L157.86,297.79L162.5,297.22L190.36,294.4L193.84,293.84L200.8,292.14L203.13,288.75L210.09,285.93L214.73,285.36L242.59,281.98L249.55,278.59L251.88,274.07L253.04,261.65L254.2,259.39L255.36,248.66L256.52,235.67L257.68,174.12L258.84,148.14L260,147.58L262.32,145.88L263.48,145.32L268.13,140.8L269.29,139.11L270.45,136.28L271.61,131.2L275.09,129.51L276.25,127.25L278.57,126.12L282.05,125.55L283.21,124.42L285.54,123.86L286.7,123.29L291.34,122.73L298.3,117.65L301.79,117.08L334.29,115.39L347.05,114.82L352.86,112.56L364.46,112L365.63,111.44L372.59,110.87L374.91,109.18L381.88,108.05L388.84,107.48L391.16,106.35L392.32,105.79L399.29,105.22L400.45,104.66L405.09,104.09L421.34,102.4L423.66,101.84L424.82,101.27L430.63,100.71L439.91,100.14L441.07,99.01L450.36,97.32L453.84,96.75L457.32,95.06L463.13,94.49L464.29,93.93L473.57,93.36L479.38,92.24L489.82,91.67L530.45,90.54L536.25,89.41L539.73,88.28L543.21,87.72L546.7,86.02L559.46,85.46L578.04,83.76" style="vector-effect: non-scaling-stroke; fill: none; stroke: rgb(188, 188, 188); stroke-opacity: 1; stroke-width: 1px; opacity: 1;"/></g><g class="points"/><g class="text"/></g><g class="trace scatter tracec259d4" style="stroke-miterlimit: 2; opacity: 1;"><g class="fills"/><g class="errorbars"/><g class="lines"><path class="js-line" d="M67.32,304L71.96,303.44L84.73,302.87L95.18,300.05L100.98,299.48L113.75,298.92L117.23,297.79L123.04,296.09L124.2,294.96L125.36,294.4L131.16,293.84L147.41,292.71L148.57,292.14L162.5,290.45L164.82,289.88L181.07,288.19L182.23,287.62L392.32,286.49L393.48,285.93L401.61,284.24L414.38,283.67L446.88,281.41L450.36,280.85L452.68,280.28L464.29,279.72L465.45,277.46L468.93,276.89L473.57,276.33L490.98,275.76L495.63,274.64L509.55,274.07L520,272.94L542.05,272.38L545.54,271.81L546.7,270.12L560.63,268.42L567.59,267.86L580.36,267.29" style="vector-effect: non-scaling-stroke; fill: none; stroke: rgb(188, 188, 188); stroke-opacity: 1; stroke-width: 1px; opacity: 1;"/></g><g class="points"/><g class="text"/></g><g class="trace scatter traceee80b0" style="stroke-miterlimit: 2; opacity: 1;"><g class="fills"/><g class="errorbars"/><g class="lines"><path class="js-line" d="M71.96,304L90.54,302.87L97.5,301.74L103.3,301.18L123.04,300.61L185.71,297.79L189.2,297.22L198.48,296.09L203.13,290.45L205.45,289.32L226.34,288.75L227.5,288.19L247.23,287.62L249.55,286.49L263.48,285.93L276.25,285.36L316.88,284.8L349.38,282.54L351.7,281.98L372.59,280.28L388.84,279.72L390,279.15L402.77,278.59L407.41,278.02L420.18,277.46L450.36,276.33L457.32,275.76L461.96,275.2L463.13,274.07L497.95,272.94L499.11,272.38L531.61,270.68L532.77,270.12L540.89,269.55L566.43,268.99L578.04,268.42" style="vector-effect: non-scaling-stroke; fill: none; stroke: rgb(188, 188, 188); stroke-opacity: 1; stroke-width: 1px; opacity: 1;"/></g><g class="points"/><g class="text"/></g><g class="trace scatter traceca864c" style="stroke-miterlimit: 2; opacity: 1;"><g class="fills"/><g class="errorbars"/><g class="lines"><path class="js-line" d="M74.29,304L193.84,301.74L205.45,300.61L214.73,299.48L242.59,298.35L249.55,297.22L261.16,296.66L264.64,296.09L266.96,293.84L364.46,292.14L374.91,291.58L388.84,290.45L390,289.32L398.13,288.19L400.45,287.06L401.61,286.49L405.09,285.93L414.38,280.85L419.02,280.28L422.5,278.02L423.66,276.89L438.75,274.07L439.91,272.94L446.88,270.12L448.04,267.86L456.16,263.91L457.32,262.78L460.8,262.21L461.96,256L464.29,254.31L465.45,252.05L482.86,247.53L484.02,246.96L487.5,242.45L489.82,241.88L493.3,239.62L496.79,239.06L502.59,237.93L503.75,237.36L504.91,236.24L521.16,235.67L540.89,232.85L543.21,232.28L581.52,230.02L582.68,229.46" style="vector-effect: non-scaling-stroke; fill: none; stroke: rgb(188, 188, 188); stroke-opacity: 1; stroke-width: 1px; opacity: 1;"/></g><g class="points"/><g class="text"/></g><g class="trace scatter trace650399" style="stroke-miterlimit: 2; opacity: 1;"><g class="fills"/><g class="errorbars"/><g class="lines"><path class="js-line" d="M74.29,304L77.77,303.44L98.66,302.87L131.16,300.05L162.5,298.92L188.04,298.35L190.36,297.22L197.32,295.53L198.48,294.4L203.13,292.71L205.45,291.01L225.18,288.19L234.46,287.62L253.04,285.36L268.13,284.8L270.45,284.24L277.41,283.67L278.57,283.11L283.21,282.54L292.5,280.85L293.66,280.28L316.88,278.02L338.93,277.46L348.21,276.33L364.46,275.76L378.39,274.07L379.55,273.51L403.93,272.38L413.21,271.81L422.5,270.68L436.43,270.12L441.07,269.55L463.13,268.42L474.73,267.29L539.73,266.73L546.7,265.6L557.14,265.04L585,264.47" style="vector-effect: non-scaling-stroke; fill: none; stroke: rgb(188, 188, 188); stroke-opacity: 1; stroke-width: 1px; opacity: 1;"/></g><g class="points"/><g class="text"/></g><g class="trace scatter trace8c3d3a" style="stroke-miterlimit: 2; opacity: 1;"><g class="fills"/><g class="errorbars"/><g class="lines"><path class="js-line" d="M74.29,304L99.82,302.87L132.32,302.31L205.45,300.05L293.66,299.48L365.63,297.22L373.75,296.66L383.04,296.09L384.2,294.96L409.73,292.71L412.05,292.14L487.5,290.45L515.36,289.88" style="vector-effect: non-scaling-stroke; fill: none; stroke: rgb(188, 188, 188); stroke-opacity: 1; stroke-width: 1px; opacity: 1;"/></g><g class="points"/><g class="text"/></g><g class="trace scatter trace25bd16" style="stroke-miterlimit: 2; opacity: 1;"><g class="fills"/><g class="errorbars"/><g class="lines"><path class="js-line" d="M75.45,304L84.73,303.44L98.66,301.74L100.98,299.48L193.84,298.92L228.66,296.66L249.55,296.09L294.82,293.27L320.36,292.71L335.45,292.14L379.55,291.58L405.09,290.45L413.21,289.88L463.13,288.19L464.29,287.62L465.45,283.11L492.14,282.54L524.64,281.98" style="vector-effect: non-scaling-stroke; fill: none; stroke: rgb(188, 188, 188); stroke-opacity: 1; stroke-width: 1px; opacity: 1;"/></g><g class="points"/><g class="text"/></g><g class="trace scatter trace376691" style="stroke-miterlimit: 2; opacity: 1;"><g class="fills"/><g class="errorbars"/><g class="lines"><path class="js-line" d="M75.45,304L91.7,302.87L99.82,301.74L193.84,300.05L204.29,299.48L205.45,298.35L208.93,297.22L210.09,295.53L212.41,294.4L244.91,292.71L247.23,292.14L258.84,291.58L286.7,291.01L301.79,289.88L318.04,289.32L386.52,287.62L391.16,287.06L402.77,286.49L406.25,285.36L463.13,284.24L480.54,283.67L482.86,283.11L494.46,282.54L562.95,280.85" style="vector-effect: non-scaling-stroke; fill: none; stroke: rgb(188, 188, 188); stroke-opacity: 1; stroke-width: 1px; opacity: 1;"/></g><g class="points"/><g class="text"/></g><g class="trace scatter trace9960dd" style="stroke-miterlimit: 2; opacity: 1;"><g class="fills"/><g class="errorbars"/><g class="lines"><path class="js-line" d="M80.09,304L112.59,302.31L120.71,301.18L179.91,300.05L193.84,299.48L205.45,297.22L249.55,296.66L338.93,294.4L340.09,293.84L350.54,292.71L373.75,292.14L374.91,291.58L398.13,291.01L407.41,289.32L448.04,288.75L466.61,287.62L571.07,287.06" style="vector-effect: non-scaling-stroke; fill: none; stroke: rgb(188, 188, 188); stroke-opacity: 1; stroke-width: 1px; opacity: 1;"/></g><g class="points"/><g class="text"/></g><g class="trace scatter tracee17239" style="stroke-miterlimit: 2; opacity: 1;"><g class="fills"/><g class="errorbars"/><g class="lines"><path class="js-line" d="M85.89,304L95.18,303.44L98.66,302.31L99.82,301.74L120.71,301.18L190.36,299.48L195,298.35L201.96,296.09L203.13,294.96L212.41,292.71L220.54,292.14L228.66,291.01L229.82,290.45L235.63,289.88L236.79,288.75L241.43,287.62L247.23,285.36L250.71,284.24L257.68,283.67L260,282.54L271.61,281.98L273.93,281.41L276.25,279.15L282.05,278.59L286.7,276.33L289.02,274.64L291.34,274.07L322.68,266.73L329.64,266.16L330.8,265.04L342.41,262.78L343.57,261.65L350.54,259.95L356.34,257.13L367.95,256.56L371.43,254.87L372.59,245.84L376.07,241.32L384.2,238.49L386.52,236.24L388.84,235.11L391.16,231.15L395.8,228.89L400.45,226.64L401.61,226.07L407.41,222.68L408.57,220.99L413.21,219.86L414.38,214.78L419.02,212.52L420.18,210.82L422.5,209.13L423.66,208.56L424.82,204.61L425.98,204.05L429.46,198.96L430.63,192.75L434.11,187.67L435.27,180.89L437.59,179.76L438.75,178.07L439.91,175.81L444.55,175.25L446.88,170.73L449.2,169.04L450.36,168.47L453.84,165.65L457.32,160L458.48,158.31L461.96,157.18L463.13,152.66L465.45,150.4L467.77,149.84L473.57,148.14L474.73,143.06L475.89,141.93L478.21,140.8L481.7,138.54L482.86,137.41L486.34,133.46L487.5,131.2L489.82,128.94L494.46,126.68L495.63,126.12L496.79,123.86L497.95,123.29L499.11,121.6L504.91,119.91L507.23,119.34L510.71,117.08L511.88,115.95L515.36,114.82L516.52,113.69L518.84,112.56L520,110.87L526.96,108.05L528.13,105.22L529.29,104.66L530.45,102.96L533.93,100.71L535.09,99.58L539.73,92.8L540.89,92.24L544.38,89.98L545.54,88.85L547.86,86.59L552.5,86.02L557.14,83.76L558.3,82.64L567.59,78.12L568.75,76.42L573.39,74.73L574.55,74.16L575.71,73.04L576.88,70.78L585,68.52" style="vector-effect: non-scaling-stroke; fill: none; stroke: rgb(188, 188, 188); stroke-opacity: 1; stroke-width: 1px; opacity: 1;"/></g><g class="points"/><g class="text"/></g><g class="trace scatter trace3608e0" style="stroke-miterlimit: 2; opacity: 1;"><g class="fills"/><g class="errorbars"/><g class="lines"><path class="js-line" d="M95.18,304L120.71,301.74L181.07,301.18L203.13,300.61L205.45,298.92L211.25,295.53L239.11,294.96L258.84,293.84L282.05,293.27L293.66,292.71L335.45,292.14L555.98,291.01" style="vector-effect: non-scaling-stroke; fill: none; stroke: rgb(188, 188, 188); stroke-opacity: 1; stroke-width: 1px; opacity: 1;"/></g><g class="points"/><g class="text"/></g><g class="trace scatter trace71bb86" style="stroke-miterlimit: 2; opacity: 1;"><g class="fills"/><g class="errorbars"/><g class="lines"><path class="js-line" d="M97.5,304L193.84,302.31L204.29,301.74L210.09,301.18L249.55,300.61L268.13,299.48L273.93,295.53L276.25,281.41L277.41,249.22L279.73,185.98L280.89,184.85L282.05,184.28L301.79,183.72L373.75,182.59L374.91,182.02L403.93,179.76L465.45,179.2L559.46,178.64" style="vector-effect: non-scaling-stroke; fill: none; stroke: rgb(188, 188, 188); stroke-opacity: 1; stroke-width: 1px; opacity: 1;"/></g><g class="points"/><g class="text"/></g><g class="trace scatter tracea97d8e" style="stroke-miterlimit: 2; opacity: 1;"><g class="fills"/><g class="errorbars"/><g class="lines"><path class="js-line" d="M98.66,304L201.96,301.74L205.45,301.18L283.21,298.92L374.91,298.35L400.45,297.22L405.09,296.66L430.63,295.53L486.34,294.96L494.46,293.27L502.59,292.71" style="vector-effect: non-scaling-stroke; fill: none; stroke: rgb(188, 188, 188); stroke-opacity: 1; stroke-width: 1px; opacity: 1;"/></g><g class="points"/><g class="text"/></g><g class="trace scatter trace6094e2" style="stroke-miterlimit: 2; opacity: 1;"><g class="fills"/><g class="errorbars"/><g class="lines"><path class="js-line" d="M98.66,304L143.93,303.44L153.21,301.74L211.25,299.48L213.57,297.79L229.82,297.22L236.79,296.09L292.5,292.14L293.66,291.58L341.25,289.32L358.66,288.19L359.82,287.06L373.75,286.49L409.73,284.8L450.36,284.24L458.48,282.54L482.86,281.98L494.46,279.72L537.41,279.15L578.04,278.59" style="vector-effect: non-scaling-stroke; fill: none; stroke: rgb(188, 188, 188); stroke-opacity: 1; stroke-width: 1px; opacity: 1;"/></g><g class="points"/><g class="text"/></g><g class="trace scatter trace5dde12" style="stroke-miterlimit: 2; opacity: 1;"><g class="fills"/><g class="errorbars"/><g class="lines"><path class="js-line" d="M3.48,304L4.64,303.44L25.54,302.87L26.7,302.31L34.82,301.74L39.46,301.18L67.32,300.61L68.48,300.05L73.13,299.48L92.86,297.79L99.82,296.66L104.46,296.09L160.18,295.53L193.84,293.27L197.32,292.14L198.48,291.58L201.96,291.01L203.13,290.45L206.61,289.88L220.54,288.19L221.7,287.62L235.63,285.93L237.95,285.36L243.75,284.8L244.91,282.54L247.23,275.2L253.04,274.64L284.38,272.38L285.54,271.81L309.91,267.86L323.84,266.73L340.09,265.6L341.25,265.04L343.57,264.47L349.38,263.91L350.54,263.34L366.79,262.78L387.68,261.65L392.32,261.08L446.88,259.39L448.04,258.82L481.7,257.13L486.34,256L490.98,254.31L504.91,253.74L524.64,252.05L529.29,250.35L536.25,248.09L537.41,247.53L555.98,245.27L558.3,244.71L560.63,244.14L566.43,243.58L575.71,243.01" style="vector-effect: non-scaling-stroke; fill: none; stroke: rgb(162, 157, 56); stroke-opacity: 1; stroke-width: 3px; opacity: 1;"/></g><g class="points"/><g class="text"/></g><g class="trace scatter trace1858cf" style="stroke-miterlimit: 2; opacity: 1;"><g class="fills"/><g class="errorbars"/><g class="lines"><path class="js-line" d="M3.48,304L4.64,303.44L25.54,302.87L26.7,302.31L34.82,301.74L39.46,301.18L80.09,300.61L99.82,297.22L136.96,296.66L138.13,296.09L161.34,295.53L182.23,294.4L188.04,293.84L190.36,292.71L193.84,292.14L237.95,291.01L241.43,288.19L242.59,284.24L243.75,277.46L247.23,156.61L249.55,155.48L250.71,154.35L253.04,153.79L270.45,153.22L271.61,144.19L276.25,143.06L283.21,140.24L292.5,139.11L293.66,137.98L299.46,137.41L323.84,136.85L342.41,134.59L347.05,134.02L351.7,133.46L363.3,132.89L401.61,131.76L403.93,131.2L409.73,130.07L413.21,126.12L449.2,123.86L486.34,123.29L487.5,122.73L526.96,122.16L529.29,121.04" style="vector-effect: non-scaling-stroke; fill: none; stroke: rgb(120, 61, 73); stroke-opacity: 1; stroke-width: 3px; opacity: 1;"/></g><g class="points"/><g class="text"/></g><g class="trace scatter trace8961ff" style="stroke-miterlimit: 2; opacity: 1;"><g class="fills"/><g class="errorbars"/><g class="lines"><path class="js-line" d="M3.48,304L4.64,303.44L25.54,302.87L26.7,302.31L34.82,301.74L39.46,301.18L67.32,300.05L70.8,298.35L71.96,296.09L73.13,294.4L75.45,293.84L80.09,292.71L81.25,291.58L82.41,290.45L84.73,289.88L100.98,281.41L106.79,280.28L107.95,279.72L111.43,279.15L124.2,277.46L125.36,276.33L126.52,275.2L130,274.64L135.8,272.38L138.13,271.81L139.29,270.68L142.77,270.12L146.25,268.99L147.41,267.29L152.05,266.16L153.21,265.04L155.54,263.34L156.7,262.78L157.86,262.21L161.34,261.65L163.66,260.52L171.79,259.39L172.95,258.82L176.43,258.26L177.59,257.69L182.23,256.56L185.71,254.87L189.2,254.31L190.36,253.74L193.84,253.18L198.48,252.61L203.13,248.66L212.41,244.14L218.21,242.45L225.18,239.06L227.5,236.8L229.82,235.11L232.14,234.54L234.46,233.41L235.63,231.72L237.95,230.02L242.59,228.89L243.75,228.33L244.91,223.81L248.39,221.55L249.55,220.42L254.2,217.6L255.36,216.47L261.16,214.78L264.64,214.21L269.29,213.65L270.45,212.52L271.61,210.82L275.09,209.13L276.25,208.56L277.41,206.87L280.89,204.61L283.21,183.15L284.38,182.59L285.54,179.76L286.7,178.64L289.02,178.07L292.5,176.38L293.66,174.68L295.98,172.99L298.3,172.42L299.46,170.16L300.63,169.6L308.75,167.91L309.91,166.78L311.07,166.21L314.55,165.65L320.36,162.82L321.52,161.13L323.84,160L326.16,157.74L335.45,153.22L336.61,152.09L342.41,148.71L345.89,148.14L348.21,146.45L349.38,145.32L350.54,141.93L351.7,141.36L354.02,139.67L356.34,137.98L358.66,136.85L359.82,135.15L360.98,133.46L364.46,132.89L366.79,130.64L367.95,127.25L369.11,126.68L372.59,123.86L374.91,119.34L376.07,118.78L379.55,115.39L380.71,114.82L381.88,113.69L384.2,110.31L386.52,108.61L387.68,108.05L392.32,106.35L393.48,104.66L399.29,101.84L400.45,100.14L405.09,97.32L406.25,94.49L410.89,92.8L412.05,92.24L414.38,91.11L415.54,89.41L420.18,84.33L422.5,83.76L431.79,79.25L434.11,78.68L438.75,76.99L442.23,75.86L448.04,69.65L449.2,66.26L451.52,62.87L452.68,61.18L458.48,57.79L461.96,57.22L464.29,56.66L465.45,54.4L471.25,53.27L472.41,52.71L486.34,49.32L487.5,47.62L496.79,44.24L499.11,42.54L502.59,40.85L503.75,39.15L504.91,38.02L508.39,37.46L510.71,36.89L511.88,35.76L514.2,34.07L520,33.51L536.25,28.99L537.41,27.86L549.02,22.78L552.5,21.65L561.79,19.95L569.91,19.39L572.23,18.82L573.39,17.69L578.04,16" style="vector-effect: non-scaling-stroke; fill: none; stroke: rgb(57, 104, 123); stroke-opacity: 1; stroke-width: 3px; opacity: 1;"/></g><g class="points"/><g class="text"/></g></g></g><g class="overplot"/><path class="xlines-above crisp" d="M0,0" style="fill: none;"/><path class="ylines-above crisp" d="M0,0" style="fill: none;"/><g class="overlines-above"/><g class="xaxislayer-above"><g class="xtick"><text text-anchor="middle" x="0" y="433" transform="translate(111.34,0)" style="font-family: 'Open Sans', verdana, arial, sans-serif; font-size: 12px; fill: rgb(42, 63, 95); fill-opacity: 1; white-space: pre; opacity: 1;">May 2023</text></g><g class="xtick"><text text-anchor="middle" x="0" y="433" style="font-family: 'Open Sans', verdana, arial, sans-serif; font-size: 12px; fill: rgb(42, 63, 95); fill-opacity: 1; white-space: pre; opacity: 1;" transform="translate(182.14,0)">Jul 2023</text></g><g class="xtick"><text text-anchor="middle" x="0" y="433" style="font-family: 'Open Sans', verdana, arial, sans-serif; font-size: 12px; fill: rgb(42, 63, 95); fill-opacity: 1; white-space: pre; opacity: 1;" transform="translate(254.11,0)">Sep 2023</text></g><g class="xtick"><text text-anchor="middle" x="0" y="433" style="font-family: 'Open Sans', verdana, arial, sans-serif; font-size: 12px; fill: rgb(42, 63, 95); fill-opacity: 1; white-space: pre; opacity: 1;" transform="translate(324.90999999999997,0)">Nov 2023</text></g><g class="xtick"><text text-anchor="middle" x="0" y="433" style="font-family: 'Open Sans', verdana, arial, sans-serif; font-size: 12px; fill: rgb(42, 63, 95); fill-opacity: 1; white-space: pre; opacity: 1;" transform="translate(395.71,0)">Jan 2024</text></g><g class="xtick"><text text-anchor="middle" x="0" y="433" style="font-family: 'Open Sans', verdana, arial, sans-serif; font-size: 12px; fill: rgb(42, 63, 95); fill-opacity: 1; white-space: pre; opacity: 1;" transform="translate(465.36,0)">Mar 2024</text></g><g class="xtick"><text text-anchor="middle" x="0" y="433" style="font-family: 'Open Sans', verdana, arial, sans-serif; font-size: 12px; fill: rgb(42, 63, 95); fill-opacity: 1; white-space: pre; opacity: 1;" transform="translate(536.1600000000001,0)">May 2024</text></g><g class="xtick"><text text-anchor="middle" x="0" y="433" style="font-family: 'Open Sans', verdana, arial, sans-serif; font-size: 12px; fill: rgb(42, 63, 95); fill-opacity: 1; white-space: pre; opacity: 1;" transform="translate(606.96,0)">Jul 2024</text></g></g><g class="yaxislayer-above"><g class="ytick"><text text-anchor="end" x="79" y="4.199999999999999" transform="translate(0,404.56)" style="font-family: 'Open Sans', verdana, arial, sans-serif; font-size: 12px; fill: rgb(42, 63, 95); fill-opacity: 1; white-space: pre; opacity: 1;">0</text></g><g class="ytick"><text text-anchor="end" x="79" y="4.199999999999999" style="font-family: 'Open Sans', verdana, arial, sans-serif; font-size: 12px; fill: rgb(42, 63, 95); fill-opacity: 1; white-space: pre; opacity: 1;" transform="translate(0,348.09000000000003)">100</text></g><g class="ytick"><text text-anchor="end" x="79" y="4.199999999999999" style="font-family: 'Open Sans', verdana, arial, sans-serif; font-size: 12px; fill: rgb(42, 63, 95); fill-opacity: 1; white-space: pre; opacity: 1;" transform="translate(0,291.62)">200</text></g><g class="ytick"><text text-anchor="end" x="79" y="4.199999999999999" style="font-family: 'Open Sans', verdana, arial, sans-serif; font-size: 12px; fill: rgb(42, 63, 95); fill-opacity: 1; white-space: pre; opacity: 1;" transform="translate(0,235.15)">300</text></g><g class="ytick"><text text-anchor="end" x="79" y="4.199999999999999" style="font-family: 'Open Sans', verdana, arial, sans-serif; font-size: 12px; fill: rgb(42, 63, 95); fill-opacity: 1; white-space: pre; opacity: 1;" transform="translate(0,178.68)">400</text></g><g class="ytick"><text text-anchor="end" x="79" y="4.199999999999999" style="font-family: 'Open Sans', verdana, arial, sans-serif; font-size: 12px; fill: rgb(42, 63, 95); fill-opacity: 1; white-space: pre; opacity: 1;" transform="translate(0,122.21000000000001)">500</text></g></g><g class="overaxes-above"/></g></g><g class="polarlayer"/><g class="smithlayer"/><g class="ternarylayer"/><g class="geolayer"/><g class="funnelarealayer"/><g class="pielayer"/><g class="iciclelayer"/><g class="treemaplayer"/><g class="sunburstlayer"/><g class="glimages"/><defs id="topdefs-32c91d"><g class="clips"/><clipPath id="legend32c91d"><rect width="111" height="67" x="0" y="0"/></clipPath></defs><g class="layer-above"><g class="imagelayer"/><g class="shapelayer"/></g><g class="infolayer"><g class="legend" pointer-events="all" transform="translate(676.7,100)"><rect class="bg" shape-rendering="crispEdges" style="stroke: rgb(68, 68, 68); stroke-opacity: 1; fill: rgb(255, 255, 255); fill-opacity: 1; stroke-width: 0px;" width="111" height="67" x="0" y="0"/><g class="scrollbox" transform="" clip-path="url(#legend32c91d)"><g class="groups"><g class="traces" transform="translate(0,14.5)" style="opacity: 1;"><text class="legendtext" text-anchor="start" x="40" y="4.680000000000001" style="font-family: 'Open Sans', verdana, arial, sans-serif; font-size: 12px; fill: rgb(42, 63, 95); fill-opacity: 1; white-space: pre;">HMP_V1V3</text><g class="layers" style="opacity: 1;"><g class="legendfill"/><g class="legendlines"><path class="js-line" d="M5,0h30" style="fill: none; stroke: rgb(162, 157, 56); stroke-opacity: 1; stroke-width: 3px;"/></g><g class="legendsymbols"><g class="legendpoints"/></g></g><rect class="legendtoggle" x="0" y="-9.5" width="105.671875" height="19" style="fill: rgb(0, 0, 0); fill-opacity: 0;"/></g><g class="traces" transform="translate(0,33.5)" style="opacity: 1;"><text class="legendtext" text-anchor="start" x="40" y="4.680000000000001" style="font-family: 'Open Sans', verdana, arial, sans-serif; font-size: 12px; fill: rgb(42, 63, 95); fill-opacity: 1; white-space: pre;">HMP_V3V5</text><g class="layers" style="opacity: 1;"><g class="legendfill"/><g class="legendlines"><path class="js-line" d="M5,0h30" style="fill: none; stroke: rgb(120, 61, 73); stroke-opacity: 1; stroke-width: 3px;"/></g><g class="legendsymbols"><g class="legendpoints"/></g></g><rect class="legendtoggle" x="0" y="-9.5" width="105.671875" height="19" style="fill: rgb(0, 0, 0); fill-opacity: 0;"/></g><g class="traces" transform="translate(0,52.5)" style="opacity: 1;"><text class="legendtext" text-anchor="start" x="40" y="4.680000000000001" style="font-family: 'Open Sans', verdana, arial, sans-serif; font-size: 12px; fill: rgb(42, 63, 95); fill-opacity: 1; white-space: pre;">HMP_WGS</text><g class="layers" style="opacity: 1;"><g class="legendfill"/><g class="legendlines"><path class="js-line" d="M5,0h30" style="fill: none; stroke: rgb(57, 104, 123); stroke-opacity: 1; stroke-width: 3px;"/></g><g class="legendsymbols"><g class="legendpoints"/></g></g><rect class="legendtoggle" x="0" y="-9.5" width="105.671875" height="19" style="fill: rgb(0, 0, 0); fill-opacity: 0;"/></g></g></g><rect class="scrollbar" rx="20" ry="3" width="0" height="0" style="fill: rgb(128, 139, 164); fill-opacity: 1;" x="0" y="0"/></g><g class="g-gtitle"/><g class="g-xtitle"><text class="xtitle" x="372.5" y="460.3" text-anchor="middle" style="font-family: 'Open Sans', verdana, arial, sans-serif; font-size: 14px; fill: rgb(42, 63, 95); opacity: 1; font-weight: normal; white-space: pre;">Analysis creation date</text></g><g class="g-ytitle"><text class="ytitle" transform="rotate(-90,31.309375000000003,260)" x="31.309375000000003" y="260" text-anchor="middle" style="font-family: 'Open Sans', verdana, arial, sans-serif; font-size: 14px; fill: rgb(42, 63, 95); opacity: 1; font-weight: normal; white-space: pre;">Cumulative number of analyses created</text></g></g></svg>